<?xml version="1.0" encoding="UTF-8"?>
<svg width="129px" height="40px" viewBox="0 0 129 40" version="1.1" xmlns="http://www.w3.org/2000/svg" xmlns:xlink="http://www.w3.org/1999/xlink">
    <!-- Generator: Sketch 50.2 (55047) - http://www.bohemiancoding.com/sketch -->
    <title>Logo Copy</title>
    <desc>Created with Sketch.</desc>
    <defs></defs>
    <g id="Page-1" stroke="none" stroke-width="1" fill="none" fill-rule="evenodd">
        <g id="Website" transform="translate(-251.000000, -41.000000)">
            <g id="Logo-Copy" transform="translate(251.000000, 41.000000)">
                <path d="M1.17728,0.72992 C2.32928576,0.68383977 3.51007395,0.655040058 4.71968,0.64352 C5.92928605,0.631999942 7.23679297,0.62624 8.64224,0.62624 C10.0937673,0.62624 11.6028722,0.856637696 13.1696,1.31744 C14.7363278,1.7782423 16.1647935,2.52703482 17.45504,3.56384 C18.7452865,4.60064518 19.8051159,5.95999159 20.63456,7.64192 C21.4640041,9.32384841 21.87872,11.3859078 21.87872,13.82816 C21.87872,15.9017704 21.5964828,17.8601508 21.032,19.70336 C20.4675172,21.5465692 19.6208056,23.1535931 18.49184,24.52448 C17.3628744,25.8953669 15.9459285,26.983996 14.24096,27.7904 C12.5359915,28.596804 10.5545713,29 8.29664,29 L1.592,29 C1.20031804,29 0.895041094,28.9366406 0.67616,28.80992 C0.457278906,28.6831994 0.34784,28.4700815 0.34784,28.17056 C0.34784,27.8710385 0.428479194,27.6579206 0.58976,27.5312 C0.751040806,27.4044794 1.02751804,27.34112 1.4192,27.34112 C1.62656104,27.34112 1.86271868,27.3353601 2.12768,27.32384 C2.39264132,27.3123199 2.65183873,27.2835202 2.90528,27.23744 C3.15872127,27.1913598 3.37183914,27.1107206 3.54464,26.99552 C3.71744086,26.8803194 3.80384,26.719041 3.80384,26.51168 L3.80384,23.2976 C3.80384,22.4220756 3.80959994,21.5465644 3.82112,20.67104 C3.83264006,19.7955156 3.8384,18.8393652 3.8384,17.80256 L3.8384,13.89728 C3.8384,13.4825579 3.82688012,12.8259245 3.80384,11.92736 C3.78079988,11.0287955 3.75200017,10.0726451 3.71744,9.05888 C3.68287983,8.04511493 3.65408012,7.06016478 3.63104,6.104 C3.60799988,5.14783522 3.59648,4.40480265 3.59648,3.87488 C3.59648,3.52927827 3.53312063,3.25856098 3.4064,3.06272 C3.27967937,2.86687902 3.10688109,2.72288046 2.888,2.63072 C2.66911891,2.53855954 2.41568144,2.48096012 2.12768,2.45792 C1.83967856,2.43487988 1.5459215,2.42336 1.2464,2.42336 C0.969918618,2.42336 0.768320634,2.33696086 0.6416,2.16416 C0.514879366,1.99135914 0.45152,1.78976115 0.45152,1.55936 C0.45152,1.37503908 0.509119424,1.19648086 0.62432,1.02368 C0.739520576,0.850879136 0.923838733,0.752960115 1.17728,0.72992 Z M8.43488,2.87264 C8.08927827,2.87264 7.73216184,2.88991983 7.36352,2.92448 C6.99487816,2.95904017 6.63776173,2.98783988 6.29216,3.01088 L6.29216,26.44256 C6.29216,26.5347205 6.36703925,26.6038398 6.5168,26.64992 C6.66656075,26.6960002 6.84511896,26.7305599 7.05248,26.7536 C7.25984104,26.7766401 7.49023873,26.78816 7.74368,26.78816 L8.43488,26.78816 C10.3241694,26.78816 11.9542331,26.4598433 13.32512,25.8032 C14.6960069,25.1465567 15.8249556,24.2364858 16.712,23.07296 C17.5990444,21.9094342 18.2499179,20.5385679 18.66464,18.96032 C19.0793621,17.3820721 19.28672,15.6713692 19.28672,13.82816 C19.28672,12.3305525 19.0736021,10.9136067 18.64736,9.57728 C18.2211179,8.24095332 17.5644844,7.07744495 16.67744,6.08672 C15.7903956,5.09599505 14.6672068,4.31264288 13.30784,3.73664 C11.9484732,3.16063712 10.3241694,2.87264 8.43488,2.87264 Z M37.43072,17.38784 C37.43072,17.779522 37.3904004,18.1596782 37.30976,18.52832 C37.2291196,18.8969618 37.0966409,19.2252786 36.91232,19.51328 C36.7279991,19.8012814 36.4860815,20.0374391 36.18656,20.22176 C35.8870385,20.4060809 35.5068823,20.49824 35.04608,20.49824 C34.654398,20.49824 34.2915217,20.3888011 33.95744,20.16992 C33.6233583,19.9510389 33.45632,19.6112023 33.45632,19.1504 C33.45632,18.8047983 33.5311993,18.5571207 33.68096,18.40736 C33.8307207,18.2575993 34.003519,18.1424004 34.19936,18.06176 C34.395201,17.9811196 34.5679993,17.8947205 34.71776,17.80256 C34.8675207,17.7103995 34.9424,17.5376013 34.9424,17.28416 C34.9424,16.8463978 34.7926415,16.5411209 34.49312,16.36832 C34.1935985,16.1955191 33.8134423,16.10912 33.35264,16.10912 C32.9379179,16.10912 32.4886424,16.2012791 32.0048,16.3856 C31.5209576,16.5699209 31.0716821,16.8809578 30.65696,17.31872 C30.2422379,17.7564822 29.8966414,18.3267165 29.62016,19.02944 C29.3436786,19.7321635 29.20544,20.6019148 29.20544,21.63872 L29.20544,26.89184 L31.07168,26.89184 C32.269766,26.89184 33.1107176,26.989759 33.59456,27.1856 C34.0784024,27.381441 34.32032,27.675198 34.32032,28.06688 C34.32032,28.6889631 33.9747235,29 33.28352,29 C32.9379183,29 32.5577621,28.9942401 32.14304,28.98272 C31.7283179,28.9711999 31.3078421,28.9596801 30.8816,28.94816 C30.4553579,28.9366399 30.0348821,28.9251201 29.62016,28.9136 C29.2054379,28.9020799 28.8368016,28.89632 28.51424,28.89632 C28.1686383,28.89632 27.8691213,28.9020799 27.61568,28.9136 C27.3622387,28.9251201 27.1145612,28.9366399 26.87264,28.94816 L26.14688,28.98272 C25.9049588,28.9942401 25.6227216,29 25.30016,29 C24.9315182,29 24.6550409,28.902081 24.47072,28.70624 C24.2863991,28.510399 24.19424,28.2857613 24.19424,28.03232 C24.19424,27.7788787 24.2806391,27.5369612 24.45344,27.30656 C24.6262409,27.0761588 24.908478,26.9379202 25.30016,26.89184 C25.8531228,26.8227197 26.2159991,26.690241 26.3888,26.4944 C26.5616009,26.298559 26.6595199,26.0393616 26.68256,25.7168 C26.7056001,25.4172785 26.7228799,25.0313624 26.7344,24.55904 C26.7459201,24.0867176 26.7631999,23.4646439 26.78624,22.6928 C26.8092801,21.9209561 26.8265599,20.9705656 26.83808,19.8416 C26.8496001,18.7126344 26.85536,17.3187283 26.85536,15.65984 C26.85536,15.3372784 26.6825617,15.176 26.33696,15.176 L24.64352,15.176 C24.0675171,15.176 23.6355214,15.0896009 23.34752,14.9168 C23.0595186,14.7439991 22.91552,14.5654409 22.91552,14.38112 C22.91552,14.173759 23.0940782,14.0067206 23.4512,13.88 C23.8083218,13.7532794 24.2403175,13.6553603 24.7472,13.58624 C25.2540825,13.5171197 25.7955171,13.4710401 26.37152,13.448 C26.9475229,13.4249599 27.4428779,13.41344 27.8576,13.41344 C28.456643,13.41344 28.859839,13.4825593 29.0672,13.6208 C29.274561,13.7590407 29.37824,14.127677 29.37824,14.72672 L29.37824,16.42016 C29.9312028,15.613756 30.5647964,15.008962 31.27904,14.60576 C31.9932836,14.202558 32.753596,14.00096 33.56,14.00096 C34.1360029,14.00096 34.6601576,14.098879 35.13248,14.29472 C35.6048024,14.490561 36.0137583,14.7439984 36.35936,15.05504 C36.7049617,15.3660816 36.9699191,15.723198 37.15424,16.1264 C37.3385609,16.529602 37.43072,16.9500778 37.43072,17.38784 Z M49.42304,21.25856 C49.42304,21.0051187 49.4287999,20.7574412 49.44032,20.51552 C49.4518401,20.2735988 49.4576,20.0950406 49.4576,19.97984 C49.4576,18.4591924 49.1408032,17.2668843 48.5072,16.40288 C47.8735968,15.5388757 46.8656069,15.10688 45.4832,15.10688 C45.091518,15.10688 44.6768022,15.1471996 44.23904,15.22784 C43.8012778,15.3084804 43.4038418,15.4236793 43.04672,15.57344 C42.6895982,15.7232007 42.3900812,15.9075189 42.14816,16.1264 C41.9062388,16.3452811 41.78528,16.5929586 41.78528,16.86944 C41.78528,17.0537609 41.8428794,17.1747197 41.95808,17.23232 C42.0732806,17.2899203 42.2460788,17.3417598 42.47648,17.38784 C42.6377608,17.4108801 42.822079,17.5030392 43.02944,17.66432 C43.236801,17.8256008 43.34048,18.0905582 43.34048,18.4592 C43.34048,18.850882 43.2022414,19.1561589 42.92576,19.37504 C42.6492786,19.5939211 42.2806423,19.70336 41.81984,19.70336 C41.1055964,19.70336 40.5987215,19.4499225 40.2992,18.94304 C39.9996785,18.4361575 39.84992,17.883203 39.84992,17.28416 C39.84992,16.0399938 40.3798347,15.020484 41.43968,14.2256 C42.4995253,13.430716 43.9395109,13.03328 45.75968,13.03328 C49.8377804,13.03328 51.8768,15.2796575 51.8768,19.77248 C51.8768,20.0259213 51.8710401,20.3599979 51.85952,20.77472 C51.8479999,21.1894421 51.8364801,21.6329576 51.82496,22.10528 L51.7904,23.52224 C51.7788799,23.9945624 51.77312,24.4035183 51.77312,24.74912 C51.77312,25.8089653 51.8191995,26.5001584 51.91136,26.82272 C52.0035205,27.1452816 52.2108784,27.30656 52.53344,27.30656 C52.7868813,27.30656 52.9539196,27.2259208 53.03456,27.06464 C53.1152004,26.9033592 53.1785598,26.6729615 53.22464,26.37344 C53.2476801,26.2351993 53.3283193,26.0739209 53.46656,25.8896 C53.6048007,25.7052791 53.8351984,25.61312 54.15776,25.61312 C54.4572815,25.61312 54.6531195,25.7283188 54.74528,25.95872 C54.8374405,26.1891212 54.88352,26.4540785 54.88352,26.7536 C54.88352,27.2374424 54.8086407,27.6463983 54.65888,27.98048 C54.5091193,28.3145617 54.3075213,28.585279 54.05408,28.79264 C53.8006387,29.000001 53.5184016,29.1497595 53.20736,29.24192 C52.8963184,29.3340805 52.5680017,29.38016 52.2224,29.38016 C51.6003169,29.38016 51.0416025,29.2246416 50.54624,28.9136 C50.0508775,28.6025584 49.699521,28.0784037 49.49216,27.34112 C48.7548763,28.0092833 47.9427244,28.5161583 47.05568,28.86176 C46.1686356,29.2073617 45.1836854,29.38016 44.1008,29.38016 C42.4879919,29.38016 41.2035248,29.0115237 40.24736,28.27424 C39.2911952,27.5369563 38.81312,26.5462462 38.81312,25.30208 C38.81312,24.6339167 38.9513586,24.0118429 39.22784,23.43584 C39.5043214,22.8598371 39.8959975,22.3644821 40.40288,21.94976 C40.9097625,21.5350379 41.5145565,21.2067212 42.21728,20.9648 C42.9200035,20.7228788 43.7091156,20.60192 44.58464,20.60192 C46.3587289,20.60192 47.9715127,21.1318347 49.42304,22.19168 L49.42304,21.25856 Z M41.26688,25.26752 C41.26688,25.9587235 41.6239964,26.4713583 42.33824,26.80544 C43.0524836,27.1395217 43.904955,27.30656 44.89568,27.30656 C45.5177631,27.30656 46.0995173,27.2432006 46.64096,27.11648 C47.1824027,26.9897594 47.6604779,26.822721 48.0752,26.61536 C48.4899221,26.407999 48.8182388,26.1603214 49.06016,25.87232 C49.3020812,25.5843186 49.42304,25.2675217 49.42304,24.92192 C49.42304,24.5993584 49.319361,24.2998414 49.112,24.02336 C48.904639,23.7468786 48.6166418,23.510721 48.248,23.31488 C47.8793582,23.119039 47.4588824,22.9635206 46.98656,22.84832 C46.5142376,22.7331194 46.0016028,22.67552 45.44864,22.67552 C44.849597,22.67552 44.2966425,22.7388794 43.78976,22.8656 C43.2828775,22.9923206 42.8451218,23.1708788 42.47648,23.40128 C42.1078382,23.6316812 41.8140811,23.9081584 41.5952,24.23072 C41.3763189,24.5532816 41.26688,24.8988782 41.26688,25.26752 Z M71.81792,25.7168 C72.1865618,24.8643157 72.5551982,23.9484849 72.92384,22.96928 C73.2924818,21.9900751 73.6207986,21.0742443 73.9088,20.22176 C74.1968014,19.3692757 74.4329591,18.6262432 74.61728,17.99264 C74.8016009,17.3590368 74.89376,16.9616008 74.89376,16.80032 C74.89376,16.408638 74.697922,16.2128 74.30624,16.2128 L73.96064,16.2128 C73.6611185,16.2128 73.4537606,16.1552006 73.33856,16.04 C73.2233594,15.9247994 73.16576,15.7750409 73.16576,15.59072 C73.16576,15.4524793 73.2060796,15.3200006 73.28672,15.19328 C73.3673604,15.0665594 73.5516786,14.9571205 73.83968,14.86496 C74.1276814,14.7727995 74.5539172,14.7036802 75.1184,14.6576 C75.6828828,14.6115198 76.4489552,14.58848 77.41664,14.58848 C78.3152045,14.58848 79.0351973,14.5999999 79.57664,14.62304 C80.1180827,14.6460801 80.5327986,14.6863997 80.8208,14.744 C81.1088014,14.8016003 81.2988795,14.8822395 81.39104,14.98592 C81.4832005,15.0896005 81.52928,15.2220792 81.52928,15.38336 C81.52928,15.7980821 81.3219221,16.0399997 80.9072,16.10912 C80.4924779,16.1782403 80.0547223,16.2128 79.59392,16.2128 C79.0639974,16.2128 78.7184008,16.2358398 78.55712,16.28192 C78.3958392,16.3280002 78.2460807,16.4086394 78.10784,16.52384 C78.0156795,16.5929603 77.8774409,16.8406379 77.69312,17.26688 C77.5087991,17.6931221 77.2323218,18.3727953 76.86368,19.30592 C76.4950382,20.2390447 76.011203,21.4486326 75.41216,22.93472 C74.813117,24.4208074 74.0643245,26.2697489 73.16576,28.4816 C72.9814391,28.8963221 72.7510414,29.1843192 72.47456,29.3456 C72.1980786,29.5068808 71.9676809,29.58752 71.78336,29.58752 C71.391678,29.58752 71.092161,29.489601 70.8848,29.29376 C70.677439,29.097919 70.4931208,28.6774432 70.33184,28.03232 L67.73984,17.0768 L64.18016,27.99776 C64.0649594,28.2972815 63.909441,28.4931195 63.7136,28.58528 C63.517759,28.6774405 63.2585616,28.72352 62.936,28.72352 C62.6134384,28.72352 62.3657609,28.6601606 62.19296,28.53344 C62.0201591,28.4067194 61.8185612,28.1936015 61.58816,27.89408 L56.99168,14.89952 C56.9455998,14.7612793 56.8822404,14.6691202 56.8016,14.62304 C56.7209596,14.5769598 56.576961,14.55392 56.3696,14.55392 C55.7244768,14.55392 55.1888021,14.5251203 54.76256,14.46752 C54.3363179,14.4099197 54.1232,14.185282 54.1232,13.7936 C54.1232,13.401918 54.3132781,13.1600005 54.69344,13.06784 C55.0736019,12.9756795 55.6323163,12.9296 56.3696,12.9296 L60.65504,12.9296 C61.3232033,12.9296 61.8185584,12.9699196 62.14112,13.05056 C62.4636816,13.1312004 62.62496,13.367358 62.62496,13.75904 C62.62496,14.2889626 62.1872044,14.55392 61.31168,14.55392 L59.9984,14.55392 C59.6758384,14.55392 59.51456,14.6691188 59.51456,14.89952 C59.51456,14.9686403 59.5548796,15.1414386 59.63552,15.41792 C59.7161604,15.6944014 59.8774388,16.1955164 60.11936,16.92128 C60.3612812,17.6470436 60.7126377,18.6607935 61.17344,19.96256 C61.6342423,21.2643265 62.2563161,22.9980692 63.03968,25.16384 C64.0534451,22.1455849 64.8310373,19.7494489 65.37248,17.97536 C65.9139227,16.2012711 66.2652792,15.118402 66.42656,14.72672 C66.6108809,14.4732787 66.8239988,14.2947205 67.06592,14.19104 C67.3078412,14.0873595 67.5785585,14.03552 67.87808,14.03552 C68.1315213,14.03552 68.361919,14.0815995 68.56928,14.17376 C68.776641,14.2659205 68.983999,14.4502386 69.19136,14.72672 C69.2144001,14.8188805 69.2374399,14.8879998 69.26048,14.93408 C69.2835201,14.9801602 69.3180798,15.101119 69.36416,15.29696 C69.4102402,15.492801 69.4793595,15.7980779 69.57152,16.2128 C69.6636805,16.6275221 69.8019191,17.2265561 69.98624,18.00992 C70.1705609,18.7932839 70.4067186,19.8070338 70.69472,21.0512 C70.9827214,22.2953662 71.3571177,23.8505507 71.81792,25.7168 Z" id="Draw" fill="#596981"></path>
                <path d="M80.4485432,28.83125 C80.4485432,28.1449966 80.7185405,27.5346902 81.2585432,27.0003125 C81.7985459,26.4659348 82.3272906,26.19875 82.8447932,26.19875 C83.7785479,26.19875 84.2454182,26.5812462 84.2454182,27.34625 C84.2454182,27.9762531 83.9810459,28.5865595 83.4522932,29.1771875 C82.9235406,29.7678155 82.3272966,30.063125 81.6635432,30.063125 C80.8535392,30.063125 80.4485432,29.6525041 80.4485432,28.83125 Z M105.389793,10.47125 C105.389793,11.1125032 105.091671,11.7565593 104.495418,12.4034375 C103.899165,13.0503157 103.277609,13.37375 102.630731,13.37375 C101.983852,13.37375 101.660418,13.0362534 101.660418,12.36125 C101.660418,11.6862466 101.944478,11.0421906 102.512606,10.4290625 C103.080734,9.81593443 103.707915,9.509375 104.394168,9.509375 C104.69792,9.509375 104.939792,9.59374916 105.119793,9.7625 C105.299794,9.93125084 105.389793,10.1674985 105.389793,10.47125 Z M102.656043,25.203125 C102.656043,25.5406267 102.622294,25.7824993 102.554793,25.92875 C102.00354,27.0537556 101.126049,27.962184 99.9222932,28.6540625 C98.7185372,29.345941 97.6722977,29.691875 96.7835432,29.691875 C95.8947888,29.691875 95.1297964,29.393753 94.4885432,28.7975 C93.84729,28.201247 93.5266682,27.5937531 93.5266682,26.975 C93.5266682,26.3562469 93.8360401,25.4562559 94.4547932,24.275 C95.0735463,23.0937441 95.6922901,22.002505 96.3110432,21.00125 C96.9297963,19.999995 97.2391682,19.4571879 97.2391682,19.3728125 C97.2391682,19.2884371 97.1238569,19.1225012 96.8932307,18.875 C96.6626046,18.6274988 96.5472932,18.4446881 96.5472932,18.3265625 C96.5472932,18.2084369 96.7807284,17.899065 97.2476057,17.3984375 C97.7144831,16.89781 98.2826024,16.4028149 98.9519807,15.9134375 C99.6213591,15.4240601 100.133229,15.179375 100.487606,15.179375 C100.841983,15.179375 101.159792,15.3368734 101.441043,15.651875 C101.722295,15.9668766 101.862918,16.2537487 101.862918,16.5125 C101.862918,16.7712513 100.524182,19.2068519 97.8466682,23.819375 C97.8129181,23.8868753 97.7201065,24.0359363 97.5682307,24.2665625 C97.416355,24.4971887 97.2982312,24.6884367 97.2138557,24.8403125 C97.1294803,24.9921883 97.0310438,25.1749989 96.9185432,25.38875 C96.6935421,25.8387522 96.5810432,26.2156235 96.5810432,26.519375 C96.5810432,26.9018769 96.8397906,27.093125 97.3572932,27.093125 C97.8747958,27.093125 98.4119779,26.9159393 98.9688557,26.5615625 C99.5257335,26.2071857 100.006666,25.8162521 100.411668,25.38875 C101.469174,24.2524943 102.071043,23.684375 102.217293,23.684375 C102.509795,23.684375 102.656043,24.1906199 102.656043,25.203125 Z M116.780418,25.625 L116.763543,25.895 C116.763543,26.1762514 116.870417,26.418124 117.084168,26.620625 C117.297919,26.823126 117.494792,26.924375 117.674793,26.924375 C119.0248,26.924375 120.220101,26.721877 121.260731,26.316875 C122.301361,25.911873 122.821668,25.506877 122.821668,25.101875 C122.821668,24.910624 122.633233,24.7446882 122.256356,24.6040625 C121.879479,24.4634368 121.24386,24.2890635 120.349481,24.0809375 C119.455101,23.8728115 118.80542,23.7096881 118.400418,23.5915625 C117.995416,23.4734369 117.674794,23.3637505 117.438543,23.2625 C117.202292,23.1612495 116.960419,23.0206259 116.712918,22.840625 C116.184166,22.4693731 115.919793,21.9153162 115.919793,21.1784375 C115.919793,20.4415588 116.192603,19.7103161 116.738231,18.9846875 C117.283858,18.2590589 117.967289,17.6375026 118.788543,17.12 C119.609797,16.6024974 120.492914,16.146877 121.437918,15.753125 C123.305428,14.9768711 124.874787,14.58875 126.146043,14.58875 C127.394799,14.58875 128.165417,14.8587473 128.457918,15.39875 C128.547919,15.590001 128.592918,15.8037488 128.592918,16.04 L128.592918,16.158125 C128.592918,16.754378 128.466357,17.2212483 128.213231,17.55875 C127.960104,17.8962517 127.560733,18.1999987 127.015106,18.47 C126.469478,18.7400014 126.036357,18.875 125.715731,18.875 C125.395104,18.875 125.192606,18.8525002 125.108231,18.8075 C125.023855,18.7624998 124.953544,18.7034379 124.897293,18.6303125 C124.841043,18.5571871 124.770731,18.5037502 124.686356,18.47 C124.60198,18.4362498 124.559793,18.3518757 124.559793,18.216875 C124.559793,18.0818743 124.616043,17.9440632 124.728543,17.8034375 C124.841044,17.6628118 124.919793,17.5137508 124.964793,17.35625 C124.22229,17.3900002 123.446047,17.561561 122.636043,17.8709375 C121.826039,18.180314 121.131359,18.5262481 120.551981,18.90875 C119.972603,19.2912519 119.49167,19.6568733 119.109168,20.005625 C118.726666,20.3543767 118.535418,20.6103117 118.535418,20.7734375 C118.535418,20.9365633 118.794166,21.0687495 119.311668,21.17 C121.64043,21.6312523 123.170415,22.0306233 123.901668,22.368125 C124.632922,22.7056267 125.139167,23.0881229 125.420418,23.515625 C125.70167,23.9431271 125.842293,24.3312483 125.842293,24.68 C125.842293,25.4000036 125.555421,26.0806218 124.981668,26.721875 C124.407915,27.3631282 123.699172,27.886248 122.855418,28.29125 C121.044159,29.1800044 119.466362,29.624375 118.121981,29.624375 C116.777599,29.624375 115.849483,29.4190646 115.337606,29.0084375 C114.825728,28.5978104 114.569793,28.1112528 114.569793,27.54875 C114.569793,26.9862472 114.713229,26.4659399 115.000106,25.9878125 C115.286982,25.5096851 115.655416,25.270625 116.105418,25.270625 C116.55542,25.270625 116.780418,25.3887488 116.780418,25.625 Z" id=".tips" fill="#FFAC00"></path>
                <path d="M110.806668,11.045 L111.110418,11.01125 C111.279169,11.01125 111.414168,11.1574985 111.515418,11.45 C111.616669,11.7425015 111.667293,11.9393745 111.667293,12.040625 C111.667293,12.1418755 111.554794,12.3331236 111.329793,12.614375 L106.520418,19.938125 C108.207927,18.2506166 109.923535,17.0187539 111.667293,16.2425 C112.342297,15.9499985 112.952603,15.80375 113.498231,15.80375 C114.043858,15.80375 114.482604,15.9809357 114.814481,16.3353125 C115.146357,16.6896893 115.312293,17.1312474 115.312293,17.66 C115.312293,18.1887526 115.166045,18.8412461 114.873543,19.6175 C114.581042,20.3937539 114.184483,21.2206206 113.683856,22.098125 C113.183228,22.9756294 112.575734,23.8587456 111.861356,24.7475 C111.146977,25.6362544 110.39886,26.4406214 109.616981,27.160625 C108.835102,27.8806286 107.982923,28.4656228 107.060418,28.915625 C106.137914,29.3656273 105.327922,29.590625 104.630418,29.590625 C103.224161,29.590625 102.521043,28.9437565 102.521043,27.65 C101.204787,29.6637601 99.6860518,32.0487362 97.9647932,34.805 C96.2435346,37.5612638 95.3210439,39.0181242 95.1972932,39.175625 C95.0735426,39.3331258 94.9694812,39.411875 94.8851057,39.411875 C94.8007303,39.411875 94.6713566,39.3612505 94.4969807,39.26 C94.3226049,39.1587495 94.1397942,38.9900012 93.9485432,38.75375 C93.7572923,38.5174988 93.6588558,38.1743773 93.6532307,37.724375 C93.6476057,37.2743727 93.7797919,36.8187523 94.0497932,36.3575 C95.5685508,33.8262373 98.496334,29.0647225 102.833231,22.0728125 C107.170127,15.0809025 109.518541,11.4668762 109.878543,11.230625 C110.081044,11.0956243 110.283542,11.028125 110.486043,11.028125 L110.806668,11.045 Z M112.291668,18.8075 C112.291668,18.5712488 112.179169,18.453125 111.954168,18.453125 C111.346665,18.453125 110.061366,19.3868657 108.098231,21.254375 C106.135096,23.1218843 104.574174,24.8262423 103.415418,26.3675 C103.70792,26.7275018 104.14104,26.9075 104.714793,26.9075 C105.288546,26.9075 106.031039,26.5981281 106.942293,25.979375 C107.853548,25.3606219 108.697289,24.6265667 109.473543,23.7771875 C110.249797,22.9278083 110.91354,22.0362547 111.464793,21.1025 C112.016046,20.1687453 112.291668,19.403753 112.291668,18.8075 Z" id="Combined-Shape" fill="#FFAC00"></path>
                <path d="M98.5891682,7.265 L99.2810432,7.43375 C99.3822937,7.43375 99.4722928,7.48437449 99.5510432,7.585625 C99.6297936,7.68687551 99.6691682,7.78249955 99.6691682,7.8725 C99.6691682,7.96250045 99.5510444,8.20437303 99.3147932,8.598125 C99.0785421,8.99187697 98.8001073,9.43906 98.4794807,9.9396875 C98.1588541,10.440315 97.9872933,10.7131248 97.9647932,10.758125 C98.8422976,10.6906247 99.4638539,10.656875 99.8294807,10.656875 C100.195108,10.656875 100.445418,10.6821872 100.580418,10.7328125 C100.715419,10.7834378 100.870105,10.9240613 101.044481,11.1546875 C101.218857,11.3853137 101.379168,11.5596869 101.525418,11.6778125 C101.671669,11.7959381 101.744793,11.9731238 101.744793,12.209375 C101.744793,12.4456262 101.601357,12.6453117 101.314481,12.8084375 C101.027604,12.9715633 100.721045,13.0699998 100.394793,13.10375 C97.7847802,13.3625013 96.3447946,13.4974999 96.0747932,13.50875 C95.1635387,14.903757 93.8894889,17.0777977 92.2526057,20.0309375 C90.6157225,22.9840773 89.7466687,24.8318713 89.6454182,25.574375 C89.600418,25.9118767 89.5779182,26.1874989 89.5779182,26.40125 C89.5779182,26.8400022 89.8085409,27.059375 90.2697932,27.059375 C90.7310455,27.059375 91.2429154,26.8821893 91.8054182,26.5278125 C92.367921,26.1734357 92.8854159,25.7881271 93.3579182,25.371875 C94.6179245,24.2468694 95.2929178,23.684375 95.3829182,23.684375 C95.6754197,23.684375 95.8216682,24.1906199 95.8216682,25.203125 C95.8216682,25.7543778 95.5685458,26.2493728 95.0622932,26.688125 C93.9260376,27.6668799 92.9697971,28.4037475 92.1935432,28.89875 C91.4172894,29.3937525 90.6410471,29.64125 89.8647932,29.64125 C89.6960424,29.64125 89.538544,29.6243752 89.3922932,29.590625 C88.4922887,29.4218742 87.8313578,29.0928149 87.4094807,28.6034375 C86.9876036,28.1140601 86.7794807,27.4531292 86.7851057,26.620625 C86.7907308,25.7881208 87.0382283,24.7784434 87.5276057,23.5915625 C88.0169832,22.4046816 88.6329145,21.1418817 89.3754182,19.803125 C90.5904243,17.6206141 91.8054122,15.5731346 93.0204182,13.660625 L92.3791682,13.745 C91.0741617,13.8912507 90.3147943,13.964375 90.1010432,13.964375 L89.9491682,13.964375 C89.6229166,13.964375 89.3079198,13.8996881 89.0041682,13.7703125 C88.7004167,13.6409369 88.5485432,13.480626 88.5485432,13.289375 C88.5485432,13.098124 88.6301049,12.9125009 88.7932307,12.7325 C88.9563565,12.5524991 89.0547931,12.4118755 89.0885432,12.310625 C89.1672936,12.0631238 89.4626032,11.7875015 89.9744807,11.48375 C90.4863583,11.1799985 90.8716669,11.0196876 91.1304182,11.0028125 C91.3891695,10.9859374 91.6394795,10.9718751 91.8813557,10.960625 C92.1232319,10.9493749 92.3932292,10.9381251 92.6913557,10.926875 C92.9894822,10.9156249 93.2172924,10.9043751 93.3747932,10.893125 L94.8935432,10.825625 C95.838548,9.40811791 96.488229,8.49687702 96.8426057,8.091875 C97.1969825,7.68687297 97.402293,7.4646877 97.4585432,7.4253125 C97.5147935,7.3859373 97.6272924,7.36625 97.7960432,7.36625 L98.5891682,7.265 Z" id="Path" fill="#FFAC00"></path>
            </g>
        </g>
    </g>
</svg>